<?xml version="1.0" standalone="no"?>
<svg xmlns:xlink="http://www.w3.org/1999/xlink" id="wave" style="transform:rotate(180deg); transition: 0.3s" viewBox="0 0 1440 490" version="1.1" xmlns="http://www.w3.org/2000/svg"><defs><linearGradient id="sw-gradient-0" x1="0" x2="0" y1="1" y2="0"><stop stop-color="rgba(253, 186, 116, 1)" offset="0%"/><stop stop-color="rgba(253, 186, 116, 1)" offset="100%"/></linearGradient></defs><path style="transform:translate(0, 0px); opacity:1" fill="url(#sw-gradient-0)" d="M0,98L60,114.3C120,131,240,163,360,196C480,229,600,261,720,245C840,229,960,163,1080,147C1200,131,1320,163,1440,179.7C1560,196,1680,196,1800,204.2C1920,212,2040,229,2160,212.3C2280,196,2400,147,2520,163.3C2640,180,2760,261,2880,294C3000,327,3120,310,3240,285.8C3360,261,3480,229,3600,245C3720,261,3840,327,3960,334.8C4080,343,4200,294,4320,236.8C4440,180,4560,114,4680,89.8C4800,65,4920,82,5040,89.8C5160,98,5280,98,5400,81.7C5520,65,5640,33,5760,49C5880,65,6000,131,6120,179.7C6240,229,6360,261,6480,253.2C6600,245,6720,196,6840,179.7C6960,163,7080,180,7200,179.7C7320,180,7440,163,7560,196C7680,229,7800,310,7920,294C8040,278,8160,163,8280,122.5C8400,82,8520,114,8580,130.7L8640,147L8640,490L8580,490C8520,490,8400,490,8280,490C8160,490,8040,490,7920,490C7800,490,7680,490,7560,490C7440,490,7320,490,7200,490C7080,490,6960,490,6840,490C6720,490,6600,490,6480,490C6360,490,6240,490,6120,490C6000,490,5880,490,5760,490C5640,490,5520,490,5400,490C5280,490,5160,490,5040,490C4920,490,4800,490,4680,490C4560,490,4440,490,4320,490C4200,490,4080,490,3960,490C3840,490,3720,490,3600,490C3480,490,3360,490,3240,490C3120,490,3000,490,2880,490C2760,490,2640,490,2520,490C2400,490,2280,490,2160,490C2040,490,1920,490,1800,490C1680,490,1560,490,1440,490C1320,490,1200,490,1080,490C960,490,840,490,720,490C600,490,480,490,360,490C240,490,120,490,60,490L0,490Z"/></svg>