<?xml version="1.0" standalone="no"?>
<svg xmlns:xlink="http://www.w3.org/1999/xlink" id="wave" style="transform:rotate(0deg); transition: 0.3s" viewBox="0 0 1440 490" version="1.1" xmlns="http://www.w3.org/2000/svg"><defs><linearGradient id="sw-gradient-0" x1="0" x2="0" y1="1" y2="0"><stop stop-color="rgba(255, 255, 255, 1)" offset="0%"/><stop stop-color="rgba(255, 255, 255, 1)" offset="100%"/></linearGradient></defs><path style="transform:translate(0, 0px); opacity:1" fill="url(#sw-gradient-0)" d="M0,245L48,277.7C96,310,192,376,288,375.7C384,376,480,310,576,302.2C672,294,768,343,864,375.7C960,408,1056,425,1152,424.7C1248,425,1344,408,1440,334.8C1536,261,1632,131,1728,130.7C1824,131,1920,261,2016,269.5C2112,278,2208,163,2304,98C2400,33,2496,16,2592,8.2C2688,0,2784,0,2880,16.3C2976,33,3072,65,3168,89.8C3264,114,3360,131,3456,122.5C3552,114,3648,82,3744,89.8C3840,98,3936,147,4032,204.2C4128,261,4224,327,4320,359.3C4416,392,4512,392,4608,383.8C4704,376,4800,359,4896,367.5C4992,376,5088,408,5184,367.5C5280,327,5376,212,5472,187.8C5568,163,5664,229,5760,236.8C5856,245,5952,196,6048,171.5C6144,147,6240,147,6336,196C6432,245,6528,343,6624,383.8C6720,425,6816,408,6864,400.2L6912,392L6912,490L6864,490C6816,490,6720,490,6624,490C6528,490,6432,490,6336,490C6240,490,6144,490,6048,490C5952,490,5856,490,5760,490C5664,490,5568,490,5472,490C5376,490,5280,490,5184,490C5088,490,4992,490,4896,490C4800,490,4704,490,4608,490C4512,490,4416,490,4320,490C4224,490,4128,490,4032,490C3936,490,3840,490,3744,490C3648,490,3552,490,3456,490C3360,490,3264,490,3168,490C3072,490,2976,490,2880,490C2784,490,2688,490,2592,490C2496,490,2400,490,2304,490C2208,490,2112,490,2016,490C1920,490,1824,490,1728,490C1632,490,1536,490,1440,490C1344,490,1248,490,1152,490C1056,490,960,490,864,490C768,490,672,490,576,490C480,490,384,490,288,490C192,490,96,490,48,490L0,490Z"/></svg>